<svg width="1174" height="200" viewBox="0 0 1174 200" fill="none" xmlns="http://www.w3.org/2000/svg">
<path d="M1147.88 144.667C1131.99 144.667 1121.68 136.349 1120.07 123.314H1131.86C1133.73 131.259 1140.55 134.487 1148.13 134.487C1155.2 134.487 1161.04 131.135 1161.04 125.673C1161.04 120.086 1155.95 118.348 1148.87 117.231L1141.8 115.99C1130 114.003 1122.06 109.038 1122.06 97.8649C1122.06 86.4438 1132.24 78.8711 1146.51 78.8711C1160.54 78.8711 1170.35 85.9472 1172.71 98.6097H1161.04C1159.05 91.7819 1153.34 88.8025 1146.64 88.8025C1139.31 88.8025 1134.59 92.2785 1134.59 96.9959C1134.59 101.962 1138.32 103.575 1145.77 104.817L1152.72 105.934C1164.51 107.92 1173.45 112.638 1173.45 124.68C1173.45 136.97 1162.65 144.667 1147.88 144.667Z" fill="#76ADE4"/>
<path d="M1086.62 129.15L1104.62 80.7344H1117.9L1087.11 156.834C1084.13 164.282 1080.29 166.393 1072.34 166.393H1057.94V156.337H1068.86C1074.08 156.337 1075.94 154.723 1077.8 150.13C1078.92 147.647 1079.54 145.661 1079.54 143.55C1079.54 141.812 1079.04 139.95 1078.05 137.592L1055.46 80.7344H1068.86L1086.62 129.15Z" fill="#76ADE4"/>
<path d="M1015.73 144.667C1003.69 144.667 994.133 137.59 994.133 125.673C994.133 110.155 1010.64 105.81 1029.27 105.189L1036.84 104.941V102.334C1036.84 94.3889 1032 89.2991 1023.18 89.2991C1014.86 89.2991 1009.65 93.644 1008.41 100.596H996.119C997.609 88.1818 1007.29 78.8711 1023.18 78.8711C1038.95 78.8711 1048.63 87.3128 1048.63 102.21V131.88C1048.63 135.728 1049 141.066 1049.25 142.556V142.804H1036.84C1036.71 140.818 1036.71 136.349 1036.71 134.363C1032.62 140.073 1025.67 144.667 1015.73 144.667ZM1018.96 134.859C1030.13 134.859 1036.84 126.542 1036.84 118.224V113.134C1035.47 113.134 1033.73 113.134 1031.25 113.259C1018.09 114.003 1007.04 116.238 1007.04 124.928C1007.04 131.259 1012.01 134.859 1018.96 134.859Z" fill="#76ADE4"/>
<path d="M963.295 132.874L976.578 80.7344H989.116L971.736 142.806H954.977L941.321 92.2796L927.666 142.806H910.037L893.402 80.7344H906.313L919.348 132.998L933.128 80.7344H949.887L963.295 132.874Z" fill="#76ADE4"/>
<path d="M863.734 78.8695C876.521 78.8695 885.087 87.5594 885.087 101.588V142.803H872.3V105.436C872.3 96.9943 868.451 90.4147 858.893 90.4147C849.954 90.4147 844.12 97.4908 844.12 105.312V142.803H831.457V57.1445H844.12V89.1733C848.216 83.3386 855.168 78.8695 863.734 78.8695Z" fill="#76ADE4"/>
<path d="M819.844 143.303H802.712C796.133 143.303 792.533 139.579 792.533 132.751V90.2945H780.863V81.2321C793.153 80.7355 795.016 75.6457 795.14 62.2383H804.699V80.7355H819.844V90.2945H805.071V128.903C805.071 132.006 806.188 133.248 809.54 133.248H819.844V143.303Z" fill="#76ADE4"/>
<path d="M612.468 78.8695C625.255 78.8695 633.821 87.5594 633.821 101.588V142.803H621.034V105.436C621.034 96.9943 617.186 90.4147 607.627 90.4147C598.689 90.4147 592.854 97.4908 592.854 105.312V142.803H580.191V57.1445H592.854V89.1733C596.951 83.3386 603.903 78.8695 612.468 78.8695Z" fill="#76ADE4"/>
<path d="M568.575 143.303H551.443C544.863 143.303 541.263 139.579 541.263 132.751V90.2945H529.594V81.2321C541.884 80.7355 543.746 75.6457 543.87 62.2383H553.429V80.7355H568.575V90.2945H553.802V128.903C553.802 132.006 554.919 133.248 558.271 133.248H568.575V143.303Z" fill="#76ADE4"/>
<path d="M740.28 144.667C728.239 144.667 718.68 137.59 718.68 125.673C718.68 110.155 735.191 105.81 753.812 105.189L761.385 104.941V102.334C761.385 94.3889 756.543 89.2991 747.729 89.2991C739.411 89.2991 734.197 93.644 732.956 100.596H720.666C722.156 88.1818 731.839 78.8711 747.729 78.8711C763.495 78.8711 773.178 87.3128 773.178 102.21V131.88C773.178 135.728 773.551 141.066 773.799 142.556V142.804H761.385C761.261 140.818 761.261 136.349 761.261 134.363C757.164 140.073 750.212 144.667 740.28 144.667ZM743.508 134.859C754.681 134.859 761.385 126.542 761.385 118.224V113.134C760.019 113.134 758.281 113.134 755.798 113.259C742.639 114.003 731.59 116.238 731.59 124.928C731.59 131.259 736.556 134.859 743.508 134.859Z" fill="#76ADE4"/>
<path d="M660.748 142.803H647.465V57.1445H688.68C704.322 57.1445 715.619 66.7035 715.619 81.973C715.619 97.2425 704.198 107.298 688.68 107.298H660.748V142.803ZM660.624 68.8139V95.5046H687.687C696.501 95.5046 702.212 90.663 702.212 82.4696C702.212 73.9038 696.501 68.8139 687.687 68.8139H660.624Z" fill="#76ADE4"/>
<path d="M519.518 142.803H506.855V57.1445H519.518V142.803Z" fill="#76ADE4"/>
<path d="M460.382 144.667C448.34 144.667 438.781 137.59 438.781 125.673C438.781 110.155 455.292 105.81 473.914 105.189L481.486 104.941V102.334C481.486 94.3889 476.645 89.2991 467.831 89.2991C459.513 89.2991 454.299 93.644 453.058 100.596H440.768C442.257 88.1818 451.94 78.8711 467.831 78.8711C483.597 78.8711 493.28 87.3128 493.28 102.21V131.88C493.28 135.728 493.652 141.066 493.9 142.556V142.804H481.486C481.362 140.818 481.362 136.349 481.362 134.363C477.265 140.073 470.313 144.667 460.382 144.667ZM463.61 134.859C474.783 134.859 481.486 126.542 481.486 118.224V113.134C480.121 113.134 478.383 113.134 475.9 113.259C462.741 114.003 451.692 116.238 451.692 124.928C451.692 131.259 456.658 134.859 463.61 134.859Z" fill="#76ADE4"/>
<path d="M430.036 114.128H381C381.745 126.418 389.814 133.742 399.994 133.742C408.932 133.742 414.395 129.645 416.753 122.321H429.54C426.436 135.232 415.015 144.667 399.994 144.667C381.248 144.667 368.586 131.632 368.586 111.769C368.586 92.0302 381.745 78.8711 399.994 78.8711C418.864 78.8711 430.036 93.2716 430.036 111.769V114.128ZM399.87 89.4232C390.683 89.4232 382.738 95.2579 381.248 105.313H417.498C416.257 95.7545 409.305 89.4232 399.87 89.4232Z" fill="#76ADE4"/>
<path d="M298.998 142.803H285.715V57.1445H298.998V93.5183H344.807V57.1445H358.09V142.803H344.807V105.188H298.998V142.803Z" fill="#76ADE4"/>
<path d="M80 89.7117V110.288C80 115.654 75.654 120 70.2883 120H49.7117C44.35 120 40 124.35 40 129.712V150.288C40 155.654 35.654 160 30.2883 160H9.71168C4.35003 160 0 155.654 0 150.288V129.712C0 124.35 4.35003 120 9.71168 120H30.2883C35.654 120 40 115.654 40 110.288V89.7117C40 84.35 35.654 80 30.2883 80H9.71168C4.35003 80 0 75.654 0 70.2883V49.7117C0 44.35 4.35003 40 9.71168 40H30.2883C35.654 40 40 44.35 40 49.7117V70.2883C40 75.654 44.35 80 49.7117 80H70.2883C75.654 80 80 84.35 80 89.7117Z" fill="#76ADE4"/>
<path d="M160 89.7117V110.288C160 115.654 164.35 120 169.712 120H190.288C195.654 120 200 124.35 200 129.712V150.288C200 155.654 195.654 160 190.288 160H169.712C164.35 160 160 155.654 160 150.288V129.712C160 124.35 155.654 120 150.288 120H129.712C124.35 120 120 115.654 120 110.288V89.7117C120 84.35 124.35 80 129.712 80H150.288C155.654 80 160 75.654 160 70.2883V49.7117C160 44.35 164.35 40 169.712 40H190.288C195.654 40 200 44.35 200 49.7117V70.2883C200 75.654 195.654 80 190.288 80H169.712C164.35 80 160 84.35 160 89.7117Z" fill="#76ADE4"/>
<path d="M110.288 80H89.7117C84.346 80 80 75.654 80 70.2883V49.7117C80 44.35 75.65 40 70.2883 40H49.7117C44.346 40 40 35.654 40 30.2883V9.71168C40 4.35003 44.346 0 49.7117 0H70.2883C75.65 0 80 4.35003 80 9.71168V30.2883C80 35.654 84.346 40 89.7117 40H110.288C115.65 40 120 35.654 120 30.2883V9.71168C120 4.35003 124.346 0 129.712 0H150.288C155.65 0 160 4.35003 160 9.71168V30.2883C160 35.654 155.65 40 150.288 40H129.712C124.346 40 120 44.35 120 49.7117V70.2883C120 75.654 115.65 80 110.288 80Z" fill="#76ADE4"/>
<path d="M110.288 160H89.7117C84.346 160 80 164.35 80 169.712V190.288C80 195.654 75.65 200 70.2883 200H49.7117C44.346 200 40 195.654 40 190.288V169.712C40 164.35 44.346 160 49.7117 160H70.2883C75.65 160 80 155.654 80 150.288V129.712C80 124.35 84.346 120 89.7117 120H110.288C115.65 120 120 124.35 120 129.712V150.288C120 155.654 124.346 160 129.712 160H150.288C155.65 160 160 164.35 160 169.712V190.288C160 195.654 155.65 200 150.288 200H129.712C124.346 200 120 195.654 120 190.288V169.712C120 164.35 115.65 160 110.288 160Z" fill="#76ADE4"/>
</svg>
